<svg id="Calque_1" data-name="Calque 1" xmlns="http://www.w3.org/2000/svg" viewBox="0 0 595.28 595.28"><defs><style>.cls-1,.cls-3,.cls-4{fill:#fff;}.cls-2{fill:#b57d25;}.cls-3,.cls-4{stroke:#fff;stroke-miterlimit:10;}.cls-3{stroke-width:2.61px;}.cls-4{stroke-width:1.95px;}</style></defs><rect class="cls-1" x="365.72" y="423.37" width="2.53" height="50.46" transform="translate(-153.81 194.25) rotate(-24.68)"/><path class="cls-1" d="M352.89,478.45a3.2,3.2,0,1,0-3.19-3.2A3.2,3.2,0,0,0,352.89,478.45Z"/><path class="cls-2" d="M326.85,373.57v0l-.1.1Z"/><path class="cls-2" d="M415.3,345.78l.05,0s0,0,0,0a.11.11,0,0,0-.05-.09S415.3,345.74,415.3,345.78Z"/><path class="cls-1" d="M287.74,246h-2.53c-.34,3.53-.66,6.37-1,8.5-1,6.63-2,12.93-3.07,18.91l3.26-3.91c.24-1.43.48-2.94.77-4.75L303.94,246h-3.58l-14.49,14.5c.28-1.85.57-3.69.86-5.63C287.06,252.62,287.4,249.64,287.74,246Z"/><path class="cls-2" d="M243.18,479h0c0-.1,0-.21,0-.32C243.21,478.82,243.19,478.92,243.18,479Z"/><path class="cls-1" d="M326,434.92l2.88-3.7,11.29-14.33h-3.21l-10.16,12.89-3,3.86A55.23,55.23,0,0,0,312.3,429l5.38-11h-2.8l-5.07,10.31a55.32,55.32,0,0,0-11.15-1.42V410.05h-2.53v16.87A55.46,55.46,0,0,0,282.48,429l-4.85-12.68H275l5.08,13.38a56.1,56.1,0,0,0-10.69,4.85L264.59,428h-3.13l5.72,7.86a55.78,55.78,0,0,0-10.1,8.46l-16.6-16.59L246.9,415h-2.81l-13.6,27.39-.28.58-13.68,28,2.27,1.11,6.45-13.2,17,17c-.1.9-.25,1.8-.31,2.71l2.59.2A52.88,52.88,0,0,1,345,459.52l2.34-1.16A56,56,0,0,0,326,434.92Zm-86.64-4.82,16,16a55.56,55.56,0,0,0-7.4,11l-14.68-14.68Zm3.36,42.63-16.25-16.25,5.68-11.62,14.68,14.68A55,55,0,0,0,242.67,472.73Z"/><path class="cls-1" d="M312.07,205.63l1.76-1.79L300,190.24l10.35-10.54-1.82-1.79-10.35,10.54-6.15-6c0-.86.05-1.74.08-2.59l9.36-9.53,2.17,2.13,1.76-1.79-12.72-12.49c0-1.58.07-3,.1-4.28l.09-4.27,9.26,8.8c0,.59.05,2.09.08,3.18,0,.87,0,1.81.07,2.74h2.53c-.11-4.2-.19-7.83-.25-10.56l-.12-5.56c0-.66.05-1.23.06-1.63.1-5.74,2.15-6.76,2.17-6.77l.85-.3,0-.87.11-6h-1.85l0-9.33a8,8,0,0,0-3.8-7l-.3-.18h-2.94V90.78h-2.53v25.43h-3l-.3.18a8,8,0,0,0-3.8,7l0,9.33h-1.85l.11,6,0,.87.85.3s2.07,1,2.17,6.77c0,.4,0,1,.06,1.63l-.11,5.56c-.07,2.93-.16,6.88-.28,11.48-.14,5.64-.33,12.27-.55,19.27-.12,4-.26,8.06-.41,12.15q-.37,10.28-.78,18.4h2.42s.57-10,.77-15.08l12.07,11.95,1.75-1.88-12.57-12.35,5.56-5.66ZM299.64,168.5l-7.43,7.57c.11-3.82.2-7.45.29-10.73,0-1.32.06-2.57.09-3.77ZM302,146s-.09,2-.06,3.58l.09,4.27c0,.29,0,.63,0,.94L292.8,146a19.64,19.64,0,0,0-.29-2.8h9.77A19.64,19.64,0,0,0,302,146Zm-8-27.27h6.89a5.46,5.46,0,0,1,2.21,3.36H291.74A5.5,5.5,0,0,1,294,118.74Zm-2.34,5.89h11.57l0,8H291.59Zm-1.77,13.29,0-2.72H305l0,2.72a6.62,6.62,0,0,0-1.95,2.76H291.78A6.62,6.62,0,0,0,289.84,137.92Zm1.75,57.22c.12-3.13.22-6.25.32-9.32l4.5,4.42Z"/><path class="cls-1" d="M322.78,319.12l-21.58.19H274.3l-4.13-8.55h40.26l0-2.53H278.85l2.79-16.62-2.57-.43-2.87,17.05h-8.93v2.06l4.48,9.55-5.67,19.45c.65.78,1.31,1.53,2,2.24l5.74-19.69h15.64l-5.74,30c.81.26,1.62.5,2.44.7L292,321.84h11.57L309,350.9c.81-.34,1.6-.69,2.37-1.1l-5.24-28h14.77l3.37,11.31,2.6-.13Z"/><path class="cls-1" d="M75.48,296.46a7.63,7.63,0,1,0-7.63,7.41A7.52,7.52,0,0,0,75.48,296.46Z"/><path class="cls-1" d="M527.43,289.06a7.41,7.41,0,1,0,7.63,7.4A7.52,7.52,0,0,0,527.43,289.06Z"/><path class="cls-1" d="M327.52,185.38l-.67,2.47.3.08a111.52,111.52,0,0,1,11.93,4l-9.57,23.09h2.77l9.17-22.12a116.77,116.77,0,0,1,35,23.21L353,239.37c.62.59,1.24,1.18,1.84,1.78l23.47-23.23c2.58,2.58,5,5.34,7.29,8.16.63-.58,1.27-1.15,1.92-1.69-2.35-2.86-4.79-5.65-7.4-8.27l55.29-54.72.23-.23-1.82-1.81-55.54,55a119.11,119.11,0,0,0-35.88-23.78l18.2-43.94.12-.29-2.36-1-18.33,44.25a112.13,112.13,0,0,0-12.24-4.13Z"/><path class="cls-1" d="M118.93,376.62l13.31-5.89c-.68-.62-1.36-1.24-2-1.9L118,374.25Z"/><path class="cls-1" d="M157.64,437.31l78.85-78.23-1.68-1.95-21.43,21c-1.41-1.48-4-4.25-5.33-5.8l-2.12,1.45c1.44,1.68,4.11,4.57,5.63,6.17l-55.69,55.5Z"/><polygon class="cls-1" points="393.64 394.79 433.63 434.68 433.85 434.9 435.67 433.09 397.33 394.85 393.64 394.79"/><path class="cls-1" d="M206.17,260.39l17.56,7.27c.32-.79.64-1.58,1-2.36l-17.38-7.2Z"/><path class="cls-1" d="M234.22,150.27a1.95,1.95,0,1,0,1.94-1.94A1.94,1.94,0,0,0,234.22,150.27Z"/><path class="cls-1" d="M240.58,162.75a1.95,1.95,0,1,0-2-1.95A1.94,1.94,0,0,0,240.58,162.75Z"/><path class="cls-1" d="M225.83,121a1.95,1.95,0,1,0-1.94,1.94A1.94,1.94,0,0,0,225.83,121Z"/><path class="cls-1" d="M241.25,195.25a118.31,118.31,0,0,0-25.31,18.38L161.25,158.9l-.22-.22-1.81,1.81,54.51,54.56h4.46a115.63,115.63,0,0,1,24.27-17.55c3.25-1.74,6.58-3.31,10-4.72v0l2.38-1v0A114.89,114.89,0,0,1,280.73,185l.3,0-.24-2.55-.33.05a117.41,117.41,0,0,0-26.65,7l-9-21.65-.12-.29-2.37,1,9.14,21.92C248,191.86,244.57,193.47,241.25,195.25Z"/><path class="cls-1" d="M242.28,240l-17.55-17.57v3.63l15.74,15.75C241.07,241.2,241.67,240.6,242.28,240Z"/><polygon class="cls-1" points="264.48 215.05 258.59 200.91 256.26 201.98 261.71 215.05 264.48 215.05"/><polygon class="cls-1" points="142.18 295.91 142.18 295.38 91.96 295.38 91.96 297.94 142.18 297.94 142.18 295.91"/><path class="cls-1" d="M202.13,339.63a32.42,32.42,0,0,0,2.47-3.9L165.79,352.9a36.38,36.38,0,0,0,4.2.67l.56,0Z"/><path class="cls-1" d="M411.55,298.36a115.21,115.21,0,0,1-3.18,26.94l2.41.59A117.59,117.59,0,0,0,414,298.36c0-.14,0-.28,0-.42h20.12v-2.56H414c-.08-3.24-.26-6.49-.6-9.71l-2.47.27c.34,3.13.5,6.29.58,9.44H384.76c0,.86.05,1.71.08,2.56h26.7C411.54,298.08,411.55,298.22,411.55,298.36Z"/><path class="cls-1" d="M431.92,243.52,400.57,255.4l-1.82,3.49,34.84-13.3C433.05,244.87,432.49,244.19,431.92,243.52Z"/><path class="cls-1" d="M457.17,236.81l27.66-11-1-2.37-28.3,11.16C456.1,235.32,456.64,236.06,457.17,236.81Z"/><rect class="cls-1" x="486.47" y="295.38" width="16.85" height="2.56"/><path class="cls-1" d="M194.76,364a52,52,0,0,0,14.18-8.8c9.88-8.54,14.9-20.29,14.9-34.92,0-12-3.4-21.72-10.09-29a52.9,52.9,0,0,0-25.07-14.5,56.88,56.88,0,0,0-11.51-1.53l42-50.23.31-.36v-4.4H135.19V229H204l-42,50.41-.3.36v4.4h7.43c.09,0,1,0,2.54,0a76.11,76.11,0,0,1,11.92.9c7.19,1.17,17.28,5.61,22.65,11.83s8,14,8,23.23c0,11.4-3.78,20.85-11.22,28.07s-17.08,10.91-28.64,10.91c-16.38,0-29.93-8.19-40.28-24.36l-.76-1.18-1.12.84L127,338.31l-1,.73.66,1c12,18.55,27.93,28,47.29,28a53.83,53.83,0,0,0,20.83-4"/><path class="cls-1" d="M344.7,320.31c0-12-3.39-21.72-10.08-29a52.9,52.9,0,0,0-25.07-14.5A56.88,56.88,0,0,0,298,275.26L340,225l.3-.36v-4.4H256.05V229h68.8l-42,50.41-.3.36v4.4H290c.08,0,1,0,2.54,0a76.2,76.2,0,0,1,11.92.9c7.19,1.17,17.28,5.61,22.65,11.83s8,14,8,23.23c0,11.4-3.77,20.85-11.21,28.07s-17.08,10.91-28.65,10.91c-16.38,0-29.93-8.19-40.28-24.36l-.75-1.18-1.13.84-5.25,3.94-1,.73.67,1c12,18.55,27.93,28,47.28,28a52.07,52.07,0,0,0,35-12.8C339.69,346.69,344.7,334.94,344.7,320.31Z"/><path class="cls-1" d="M466.73,293.43c0-41.37-22.76-74.91-50.85-74.91S365,252.06,365,293.43s22.76,74.92,50.84,74.92S466.73,334.81,466.73,293.43ZM415.88,359c-22.47,0-41.46-30-41.46-65.53s19-65.53,41.46-65.53,41.47,30,41.47,65.53S438.36,359,415.88,359Z"/><path class="cls-3" d="M65.56,381.46l-1-2.67,28.28-10.21,1,2.68Z"/><path class="cls-3" d="M87.51,413.88c-4.83,2.3-8.28-1.3-9.55-3.75A10.08,10.08,0,0,1,78.12,400l2.07.63a7.87,7.87,0,0,0-.79,8.51c1.56,3,4.09,3.71,6.1,2.72,5.65-2.67,2-15.39,9.51-19,3.91-1.83,8.4-.27,10.62,4a9.63,9.63,0,0,1,1.13,5.87l-2,.08a7.34,7.34,0,0,0-.54-5c-1.65-3.18-4.53-4.07-7.31-2.78C91.66,397.57,94.3,410.67,87.51,413.88Z"/><path class="cls-3" d="M123,462c-4.11,3.41-8.35.78-10.18-1.29a10.08,10.08,0,0,1-2.34-9.85l2.16.1a7.9,7.9,0,0,0,1.33,8.45c2.26,2.55,4.88,2.58,6.59,1.13,4.82-4-1.86-15.41,4.54-20.74,3.34-2.73,8.08-2.32,11.29,1.29a9.71,9.71,0,0,1,2.54,5.4l-2,.59a7.32,7.32,0,0,0-1.76-4.72c-2.38-2.68-5.39-2.83-7.76-.89C123,445.17,128.82,457.21,123,462Z"/><path class="cls-3" d="M136.63,483.85l-2.21-1.79,18.93-23.32,2.21,1.8L147,471.14l10.34,8.39,8.61-10.6,2.2,1.79L149.17,494l-2.21-1.8,9.24-11.37-10.34-8.39Z"/><path class="cls-3" d="M173.4,509.88,171,508.44l15.25-25.89,2.45,1.44Z"/><path class="cls-3" d="M223.14,500.26l1.6.65-11.23,27.86-1.32-.53-5-28.26-9.1,22.59-1.6-.65,11.23-27.86,1.28.52,5,28.27Z"/><path class="cls-3" d="M241.32,536.81l-2.77-.66,7-29.25,2.77.66Z"/><path class="cls-3" d="M286.06,513l1.72.15-2.55,29.94-1.42-.12-13.05-25.56-2.07,24.27L267,541.5l2.55-29.94,1.37.12L284,537.24Z"/><path class="cls-3" d="M325.22,530.49l2.83-.26.78,8.45a10.59,10.59,0,0,1-6.65,3.51c-7.68.71-13.76-5.66-14.52-13.9s4.16-15.48,11-16.11a10.84,10.84,0,0,1,7.84,2.48l-.91,1.34c-2.46-1.76-4.2-2.34-6.77-2.1-5.88.54-8.73,6.77-8.06,14.11s6,13.21,11.3,12.72a9.15,9.15,0,0,0,4-1.19Z"/><path class="cls-3" d="M382.92,528,380.28,529l-11.2-27.88,2.64-1.07,5.09,12.69,12.37-5-5.1-12.68,2.65-1.06L397.93,522,395.28,523l-5.46-13.61-12.36,5Z"/><path class="cls-3" d="M423.52,508.45l-2.45,1.44L405.82,484l2.45-1.44Z"/><path class="cls-3" d="M449.56,476.3l2.22-1.78,5.32,6.62a10.66,10.66,0,0,1-3.61,6.6c-6,4.83-14.6,2.88-19.79-3.57s-5.09-15.21.26-19.51a10.84,10.84,0,0,1,7.91-2.26l0,1.62c-3-.11-4.8.37-6.81,2-4.61,3.7-3.53,10.47,1.08,16.22s12.29,7.71,16.46,4.37a9.43,9.43,0,0,0,2.68-3.21Z"/><path class="cls-3" d="M478.62,463.82,476.75,466l-22.63-19.8L456,444l10.29,9,8.77-10-10.28-9,1.87-2.14,22.62,19.79-1.87,2.15-11-9.66-8.77,10Z"/><path class="cls-3" d="M504.75,430.08l-25.64-15.66,8.16-13.36,1.47.9-6.68,10.93,10.2,6.22,6.24-10.23,1.48.9L493.73,420l11,6.74,7.14-11.7,1.47.9Z"/><path class="cls-3" d="M517,380.78l14.05-4.52-1.16,2.93L516,383.76l-2,5,10.45,4.16-1.05,2.65L495.5,384.41l3.63-9.13c1-2.48,4.45-8.25,12.14-5.19C518,372.75,517.86,377.77,517,380.78Zm-4.62,7.3L515,381.6c1.37-3.45-.17-7-4.77-8.87s-8.15-.27-9.53,3.17l-2.58,6.49Z"/><path class="cls-4" d="M233,406l-6.85-16.63V406h-1.25V384.24H226L233.88,403,241,384.24h1.81V406H240.7V388.58L234,406Z"/><path class="cls-4" d="M258.3,406V384.24h11.35v1.25h-9.28v8.66h8.69v1.25h-8.69v9.38h9.94V406Z"/><path class="cls-4" d="M288.07,406V385.46H282v-1.22h14.2v1.22h-6.07V406Z"/><path class="cls-4" d="M309.73,406V384.24h11.35v1.25H311.8v8.66h8.69v1.25H311.8v9.38h9.94V406Z"/><path class="cls-4" d="M343.39,397.78,350.2,406h-2.28l-6.81-8.16h-3.88V406h-2.06V384.24h7.12c1.94,0,6.76.78,6.76,6.79C349.05,396.25,345.64,397.53,343.39,397.78Zm-6.16-1.16h5.06c2.69,0,4.69-2,4.69-5.59s-2-5.57-4.69-5.57h-5.06Z"/><path class="cls-4" d="M373,401.28c-.12,3.88-3.59,4.91-5.59,4.91a7.28,7.28,0,0,1-6.47-3.47l1.09-1.13a5.72,5.72,0,0,0,5.22,3.35c2.47,0,3.75-1.41,3.79-3,.15-4.54-9.26-6.41-9.07-12.45a5.79,5.79,0,0,1,6.13-5.5,7,7,0,0,1,4.15,1.22l-.62,1.34a5.31,5.31,0,0,0-3.41-1.31c-2.59,0-4.12,1.56-4.22,3.78C363.87,393.18,373.18,395.84,373,401.28Z"/><path class="cls-3" d="M94.71,219.18,68.23,209l-3,7.81-1.57-.6,7-18.28,1.57.61-3,7.8,26.48,10.16Z"/><path class="cls-3" d="M107.32,191.48l-1.45,2.45L80,178.65l1.45-2.45,11.77,7L100,171.67,88.2,164.72l1.45-2.45,25.89,15.28L114.09,180l-12.63-7.45L94.69,184Z"/><path class="cls-3" d="M127.06,161.71l-23-19.3,10-12,1.32,1.1-8.22,9.82,9.15,7.67,7.7-9.19,1.32,1.11-7.7,9.18,9.92,8.31,8.8-10.51,1.32,1.11Z"/><path class="cls-3" d="M176.07,108.39c2.92,4.48-.19,8.39-2.45,10a10.1,10.1,0,0,1-10.06,1.18l.35-2.14a7.88,7.88,0,0,0,8.54-.34c2.8-1.94,3.14-4.55,1.89-6.41-3.4-5.25-15.52,0-20.07-6.92-2.32-3.64-1.37-8.3,2.59-11.06a9.73,9.73,0,0,1,5.67-1.9l.35,2A7.3,7.3,0,0,0,158,94c-2.94,2-3.44,5-1.79,7.61C159.36,106.43,172,102.09,176.07,108.39Z"/><path class="cls-3" d="M197.4,103.82,184.57,78.51l-7.46,3.78-.76-1.5,17.46-8.85.77,1.5-7.47,3.78,12.83,25.31Z"/><path class="cls-3" d="M217.86,62.65,237.52,87.7l-2.57.87-7.78-10L217,82.09,216.7,94.8l-1.75.6.66-32Zm8.39,14.72-9-11.55L217,80.53Z"/><path class="cls-3" d="M261.6,71.25,272.71,81l-3.1.51-11.1-9.59-5.28.86,1.82,11.11-2.81.46-4.85-29.66,9.7-1.59c2.64-.43,9.37-.44,10.71,7.73C269,67.91,264.61,70.41,261.6,71.25Zm-8.64-.2,6.89-1.13c3.66-.6,5.94-3.77,5.14-8.66s-4-7.13-7.63-6.53l-6.89,1.13Z"/><path class="cls-3" d="M316,76.68a16.43,16.43,0,0,1-2.14-10.9,17,17,0,0,1,5-10.2,10.9,10.9,0,0,1,17.47,2.34,17.06,17.06,0,0,1,2.12,11.16,16.5,16.5,0,0,1-4.94,10A10.92,10.92,0,0,1,316,76.68Zm.93-10.48c-1,7.26,1.61,13.61,7.47,14.39s10-4.66,10.94-11.93S333.74,54.8,327.93,54,317.88,58.89,316.9,66.2Z"/><path class="cls-3" d="M358,89.38l-2.72-.85,9-28.67,14.15,4.44-.51,1.64-11.44-3.58-3.72,11.88,10.86,3.41L373,79.29l-10.86-3.4Z"/><path class="cls-3" d="M409,112.6,406.65,111,423.17,86l8.24,5.43c2.2,1.44,7.18,6,2.63,12.93-4.71,7.16-10.77,4.21-13,2.76l-5.87-3.86Zm21.47-19.82-5.87-3.86-8.46,12.85,5.86,3.86c3.06,2,6.92,1.25,9.65-2.89S433.55,94.79,430.49,92.78Z"/><path class="cls-3" d="M461.93,115.55l-12.6,29.25-2-1.84,5-11.6-7.94-7.29-11.29,5.84-1.36-1.26L460.19,114ZM453,130l5.85-13.42-13.05,6.8Z"/><path class="cls-3" d="M475.31,158.06l-3.19,14.41L470.18,170l3.1-14.33-3.3-4.22-8.87,6.92-1.75-2.24,23.7-18.49,6.05,7.75c1.64,2.11,4.88,8-1.65,13.1C481.78,162.91,477.5,160.29,475.31,158.06Zm-4-7.68,4.29,5.51c2.28,2.92,6.16,3.4,10.07.35s4.35-6.9,2.07-9.83l-4.29-5.5Z"/><path class="cls-3" d="M483.25,191.12l-1.39-2.48L508.09,174l1.39,2.48Z"/><path class="cls-3" d="M504,221.09c-5,1.8-8.11-2.12-9.12-4.69A10.07,10.07,0,0,1,496,206.34l2,.84a7.88,7.88,0,0,0-1.65,8.39c1.25,3.16,3.7,4.1,5.8,3.31,5.9-2.09,3.54-15.11,11.37-17.93,4.07-1.42,8.39.59,10.16,5.08a9.67,9.67,0,0,1,.54,5.95l-2-.12a7.3,7.3,0,0,0,0-5c-1.31-3.33-4.09-4.5-7-3.5C509.76,205.28,511.07,218.58,504,221.09Z"/></svg>